<?xml version="1.0" encoding="UTF-8" standalone="no"?>
<!-- Created with Inkscape (http://www.inkscape.org/) -->

<svg
   xmlns:dc="http://purl.org/dc/elements/1.1/"
   xmlns:cc="http://creativecommons.org/ns#"
   xmlns:rdf="http://www.w3.org/1999/02/22-rdf-syntax-ns#"
   xmlns:svg="http://www.w3.org/2000/svg"
   xmlns="http://www.w3.org/2000/svg"
   xmlns:sodipodi="http://sodipodi.sourceforge.net/DTD/sodipodi-0.dtd"
   xmlns:inkscape="http://www.inkscape.org/namespaces/inkscape"
   width="210mm"
   height="297mm"
   viewBox="0 0 210 297"
   version="1.1"
   id="svg8"
   inkscape:version="0.92.0 r15299"
   sodipodi:docname="dibujo.svg">
  <defs
     id="defs2" />
  <sodipodi:namedview
     id="base"
     pagecolor="#ffffff"
     bordercolor="#666666"
     borderopacity="1.0"
     inkscape:pageopacity="0.0"
     inkscape:pageshadow="2"
     inkscape:zoom="0.46769781"
     inkscape:cx="34.436895"
     inkscape:cy="561.25984"
     inkscape:document-units="mm"
     inkscape:current-layer="layer1"
     showgrid="false"
     showguides="false"
     inkscape:window-width="1366"
     inkscape:window-height="768"
     inkscape:window-x="0"
     inkscape:window-y="0"
     inkscape:window-maximized="1" />
  <metadata
     id="metadata5">
    <rdf:RDF>
      <cc:Work
         rdf:about="">
        <dc:format>image/svg+xml</dc:format>
        <dc:type
           rdf:resource="http://purl.org/dc/dcmitype/StillImage" />
        <dc:title></dc:title>
      </cc:Work>
    </rdf:RDF>
  </metadata>
  <g
     inkscape:label="Capa 1"
     inkscape:groupmode="layer"
     id="layer1">
    <text
       xml:space="preserve"
       style="font-style:normal;font-variant:normal;font-weight:normal;font-stretch:normal;font-size:35.47659683px;line-height:9.23869705px;font-family:'Colonna MT';-inkscape-font-specification:'Colonna MT, Normal';font-variant-ligatures:normal;font-variant-caps:normal;font-variant-numeric:normal;font-feature-settings:normal;text-align:start;letter-spacing:0px;word-spacing:0px;writing-mode:lr-tb;text-anchor:start;fill:#000000;fill-opacity:1;stroke:none;stroke-width:0.36954787"
       x="86.029701"
       y="137.77837"
       id="text3842"
       transform="scale(0.88013275,1.1361922)"><tspan
         sodipodi:role="line"
         id="tspan3866"
         x="86.029701"
         y="137.77837"
         style="stroke-width:0.36954787">ARTIN R.</tspan></text>
    <path
       style="fill:#3c3c3c;fill-opacity:0.23855525;stroke-width:0.26458332"
       id="path3864"
       d="m 56.825316,132.63568 c -2.926149,1.67444 -5.82975,3.38891 -8.778441,5.02332 -0.422294,0.23407 0.805508,-0.53329 1.194313,-0.81957 0.585989,-0.43145 1.151993,-0.88941 1.728991,-1.33282 2.627903,-2.01945 5.311725,-3.94731 8.010898,-5.87028 7.282442,-5.04224 14.538087,-10.26749 22.626468,-13.98096 0.309618,-0.014 0.648801,-0.17484 0.928852,-0.0421 2.126871,1.00844 -0.173334,4.87246 -0.739754,5.97033 -0.515702,0.99956 -1.047991,1.99047 -1.571985,2.98571 -4.922208,9.73253 -9.342916,19.72305 -13.165341,29.93918 -0.916006,2.44819 -1.760622,4.92251 -2.640933,7.38376 -2.120323,6.16388 -3.962813,12.42606 -5.336122,18.80049 -0.574606,2.66713 -1.265317,6.13641 -1.344935,8.9256 -0.03211,1.12507 0.136445,2.24693 0.204668,3.37039 0.290788,0.9078 0.407427,1.89124 0.87236,2.7234 1.809361,3.23848 5.808999,3.96512 9.167479,3.94963 5.339731,-0.0246 9.495171,-1.23858 14.791031,-2.34472 3.678119,-1.04148 7.388318,-1.97567 11.034356,-3.12443 4.493781,-1.41585 8.942119,-2.97484 13.376599,-4.56671 19.93332,-7.1556 39.32702,-15.63162 58.67493,-24.21572 13.5973,-6.10973 26.96381,-12.71362 40.48406,-18.98711 0,0 -7.96839,6.32234 -7.96839,6.32234 v 0 c -12.89162,5.64188 -25.59337,11.71138 -38.47262,17.38222 -19.43427,8.49132 -38.89969,16.90209 -58.80619,24.24119 -4.620675,1.70354 -9.247616,3.39523 -13.924033,4.93921 -3.839158,1.26755 -7.743444,2.32858 -11.615169,3.49287 -5.608577,1.27417 -10.142826,2.71026 -15.847994,2.72083 -3.876143,0.007 -8.195498,-1.00609 -10.162971,-4.73371 -0.488712,-0.92592 -0.592127,-2.0085 -0.88819,-3.01276 -0.0423,-1.20039 -0.193815,-2.40191 -0.126918,-3.60118 0.158385,-2.8393 1.00847,-6.522 1.656461,-9.2176 1.555747,-6.47179 3.539302,-12.82888 5.751726,-19.10449 4.47288,-12.48758 9.219835,-24.877 14.722504,-36.95334 1.02761,-2.19952 2.199326,-4.36268 3.045783,-6.63881 0.008,-0.0215 -0.04141,0.0197 -0.06212,0.0296 -0.207,0.0678 -0.414002,0.13565 -0.621004,0.20348 -3.537127,1.74212 -2.877592,1.45149 6.312908,-3.80045 0.752335,-0.42993 -1.483815,0.89586 -2.211763,1.36589 -2.861871,1.84789 -5.648309,3.81535 -8.451583,5.74953 -2.591173,1.85624 -5.209574,3.67265 -7.689741,5.67743 -0.875837,0.70796 -1.635432,1.57616 -2.599994,2.15746 -3.40301,2.05086 -6.870245,3.9932 -10.305368,5.9898 0,0 8.747173,-6.99691 8.747173,-6.99691 z"
       inkscape:connector-curvature="0" />
    <path
       style="fill:#000000;fill-opacity:0.23855525;stroke-width:0.26458332"
       id="path3878"
       d="m 45.468293,124.82298 c 1.479037,-0.67359 3.091503,-1.04214 4.63418,-1.57198 1.793796,-0.51074 3.511709,-1.21146 5.203338,-1.98956 1.436309,-0.99947 3.134847,-1.46067 4.676921,-2.22662 1.984861,-0.6442 1.960308,1.61282 1.931881,2.93526 -0.651457,6.81432 -2.812055,13.35623 -4.523729,19.95216 -1.286822,4.52611 -2.302965,9.11765 -3.3342,13.7057 0,0 -9.665385,4.6063 -9.665385,4.6063 v 0 c 1.470057,-4.64259 2.660219,-9.37396 4.057462,-14.03894 1.64805,-6.31361 3.724915,-12.66925 3.717748,-19.25762 -0.05064,-1.77228 0.313904,-1.54952 -0.876221,-1.02188 -1.59076,0.60467 -3.065468,1.4319 -4.598048,2.16484 -1.730052,0.72248 -3.476138,1.39052 -5.276707,1.92028 -1.603579,0.52138 -3.227208,0.99144 -4.744278,1.73971 0,0 8.797038,-6.91765 8.797038,-6.91765 z"
       inkscape:connector-curvature="0" />
    <path
       style="fill:#000000;fill-opacity:0.23855525;stroke-width:2.13813281"
       d="m 169.99451,602.40106 c 0,-0.78875 3.79268,-14.93845 8.42818,-31.44378 4.6355,-16.50534 9.46744,-34.03965 10.73764,-38.96515 2.07324,-8.03948 3.95257,-9.95301 18.37431,-18.70866 8.83568,-5.36427 16.42083,-9.75321 16.85589,-9.75321 0.43507,0 -1.5731,8.4189 -4.46259,18.70866 -2.88949,10.28976 -7.7617,29.29242 -10.82714,42.22812 l -5.57351,23.51946 -16.76639,7.92433 c -9.22151,4.35838 -16.76639,7.27898 -16.76639,6.49023 z"
       id="path3882"
       inkscape:connector-curvature="0"
       transform="scale(0.26458333)" />
    <path
       style="fill:#000000;fill-opacity:0.23855525;stroke-width:2.13813281"
       d="m 197.11037,490.63185 1.32442,-17.17467 -5.66761,2.15482 c -6.28084,2.38797 -6.72214,1.81181 -3.38634,-4.42118 2.02441,-3.78265 34.94153,-21.11388 40.10149,-21.11388 1.11061,0 2.54516,2.01097 3.18791,4.46882 1.69511,6.48212 -2.59774,30.52271 -5.76706,32.29635 -1.48351,0.83021 -8.64352,5.88684 -15.91112,11.23695 -7.26761,5.3501 -13.66209,9.72746 -14.20997,9.72746 -0.54787,0 -0.40014,-7.7286 0.32828,-17.17467 z"
       id="path3884"
       inkscape:connector-curvature="0"
       transform="scale(0.26458333)" />
    <path
       style="fill:#000000;fill-opacity:0.23855525;stroke-width:2.13813281"
       d="m 215.81279,774.85173 c -12.64114,-1.58142 -17.12302,-3.69416 -24.43695,-11.51934 -4.98509,-5.33355 -5.34183,-7.18404 -5.2933,-27.45751 0.0402,-16.79792 1.39771,-26.84094 5.97294,-44.18894 12.82117,-48.61431 48.16378,-144.08147 74.80164,-202.05354 6.48424,-14.11168 11.4259,-26.02939 10.98146,-26.4838 -0.44443,-0.45441 -11.62273,6.96088 -24.84066,16.47843 -13.21793,9.51755 -24.22691,17.10554 -24.46441,16.8622 -0.23749,-0.24334 0.0334,-2.86303 0.60199,-5.82153 0.78828,-4.10164 7.72533,-9.76361 29.21051,-23.84144 36.54841,-23.94776 52.2212,-31.76208 54.9567,-27.40094 2.67203,4.25995 1.52524,7.41677 -13.96693,38.44735 -47.70483,95.55204 -85.61189,211.0022 -81.22461,247.3786 2.94825,24.44493 20.78925,33.35076 56.90521,28.40586 67.73324,-9.27389 200.33637,-58.61612 388.88679,-144.70654 19.40356,-8.85949 39.77919,-18.42525 45.27917,-21.25725 6.84301,-3.52354 10.46298,-4.39998 11.46653,-2.7762 0.80659,1.30509 0.63631,3.16059 -0.37838,4.12333 -6.02896,5.72017 -192.28805,87.30157 -273.38779,119.74373 -126.38824,50.55882 -195.98216,70.45712 -231.06991,66.06753 z"
       id="path3886"
       inkscape:connector-curvature="0"
       transform="scale(0.26458333)" />
    <path
       style="fill:#333333;fill-opacity:0.23855525;stroke-width:2.13813281"
       d="m 198.14761,489.76528 c 0.69813,-16.06246 0.62002,-16.35136 -4.09911,-15.16187 -2.64594,0.66693 -4.81079,0.24417 -4.81079,-0.93945 0,-4.32791 37.28599,-24.58128 41.01301,-22.27785 2.45243,1.51568 2.15932,17.44204 -0.49704,27.00703 -2.06661,7.44143 -10.51639,14.91674 -29.46794,26.06952 -2.29575,1.35102 -2.71146,-1.50655 -2.13813,-14.69738 z"
       id="path3894"
       inkscape:connector-curvature="0"
       transform="scale(0.26458333)" />
    <path
       style="fill:#333333;fill-opacity:0.23855525;stroke-width:2.13813281"
       d="m 211.6881,773.7788 c -20.57928,-5.21508 -24.58939,-11.33519 -24.58576,-37.52214 0.006,-42.92938 27.26542,-124.55076 88.9715,-266.40199 1.66256,-3.82191 2.2883,-6.94624 1.39053,-6.94295 -0.89776,0.003 -11.73497,7.13441 -24.08268,15.84694 -20.88786,14.73843 -29.31319,17.77209 -19.99715,7.20025 4.8793,-5.53703 46.95045,-33.24312 62.15419,-40.93185 20.25268,-10.24205 22.39545,-6.28422 9.96328,18.40277 -53.1856,105.61251 -94.21009,230.12191 -87.53909,265.68136 2.20026,11.72841 12.18921,21.57257 25.01103,24.64846 38.48405,9.23218 152.08673,-26.45103 329.22009,-103.40979 66.7237,-28.98932 122.65606,-54.8671 123.42921,-57.10603 0.39444,-1.14222 1.45483,-1.62086 2.35643,-1.06365 0.90159,0.55722 5.35258,-0.88002 9.89107,-3.19387 10.03434,-5.1158 15.49935,-5.66946 11.78498,-1.19393 -5.61754,6.76871 -208.73405,95.42668 -300.9161,131.34633 -53.39896,20.80743 -110.56712,40.12028 -140.76942,47.55551 -24.27376,5.97572 -56.89761,9.46272 -66.28211,7.08458 z"
       id="path3896"
       inkscape:connector-curvature="0"
       transform="scale(0.26458333)" />
    <path
       style="fill:#333333;fill-opacity:0.23855525;stroke-width:2.13813281"
       d="m 181.0358,564.05927 c 5.7713,-20.8038 11.4298,-38.95354 12.57444,-40.33274 2.70324,-3.25721 27.74786,-18.72266 28.72901,-17.74062 0.41299,0.41335 -3.81835,19.01156 -9.40297,41.32936 l -10.15386,40.57782 -14.79035,6.91271 c -8.1347,3.802 -15.38868,6.95003 -16.11995,6.99564 -0.73128,0.0456 3.39238,-16.93837 9.16368,-37.74217 z"
       id="path3898"
       inkscape:connector-curvature="0"
       transform="scale(0.26458333)" />
    <path
       style="fill:#1a1a1a;fill-opacity:0.23855525;stroke-width:2.13813281"
       d=""
       id="path3900"
       inkscape:connector-curvature="0"
       transform="scale(0.26458333)" />
    <path
       style="fill:#1a1a1a;fill-opacity:0.23855525;stroke-width:2.13813281"
       d="m 156.43918,484.67409 c 14.62231,-11.53819 20.06716,-14.73175 27.89886,-16.36351 l 6.86007,-1.42931 -3.09942,6.21294 c -3.27086,6.5566 -7.69542,9.18546 -26.4569,15.71945 -16.26494,5.66453 -16.9433,5.12478 -5.20261,-4.13957 z"
       id="path3902"
       inkscape:connector-curvature="0"
       transform="scale(0.26458333)" />
    <path
       style="fill:#1a1a1a;fill-opacity:0.23855525;stroke-width:0.26458332"
       id="path3916"
       d="m 26.82667,118.50545 c 0.265057,-0.0906 0.539874,-0.15648 0.795168,-0.27174 1.150999,-0.51964 4.413475,-2.45683 3.320828,-1.82362 -1.956583,1.13387 -3.9209,2.25436 -5.878977,3.38565 -1.259146,0.72748 2.529132,-1.43628 3.782186,-2.17421 1.386416,-0.81646 2.757217,-1.65915 4.135826,-2.48873 3.357666,-2.01781 6.686473,-4.08229 9.986714,-6.19249 0.602649,-0.38534 1.186241,-0.80178 1.805379,-1.16002 10.468599,-6.05733 6.436841,-6.12182 11.265021,-5.85876 0.158118,0.44025 0.529672,0.85625 0.474359,1.32076 -0.07492,0.62916 -0.515655,1.16036 -0.834983,1.70762 -0.564843,0.96802 -1.229069,1.87497 -1.813494,2.8313 -0.864708,1.41497 -1.705689,2.84451 -2.533256,4.28152 -3.539709,6.14646 -3.150354,5.57842 -6.553983,12.13216 -4.065487,8.50547 -7.8985,17.13963 -11.140715,25.99651 -1.166582,3.1868 -1.976673,5.77242 -3.008259,8.95422 -0.31256,1.03876 -0.625123,2.07752 -0.937686,3.11627 0,0 -9.212405,4.3208 -9.212405,4.3208 v 0 c 0.408793,-1.08933 0.817587,-2.17867 1.22638,-3.268 4.628035,-11.98433 9.549493,-23.80378 14.971551,-35.45615 4.429189,-9.14396 1.632053,-3.42581 5.79932,-11.82613 0.67519,-1.36104 1.33441,-2.73005 2.019985,-4.08589 0.439756,-0.86968 0.883614,-1.73775 1.355794,-2.59026 0.214482,-0.38725 0.336601,-0.87821 0.702929,-1.12673 0.169358,-0.11489 0.364681,0.18585 0.547018,0.27877 -3.280452,1.10521 -0.670877,0.25627 7.497043,-4.53697 0.705557,-0.41404 -1.401307,0.84461 -2.099233,1.27139 -3.485256,2.13123 -6.956007,4.28634 -10.45904,6.38848 -4.726003,2.91434 -2.976517,1.87621 -7.493114,4.51353 -5.418494,3.16395 -10.780428,6.56683 -16.435953,9.33237 0,0 8.715597,-6.97165 8.715597,-6.97165 z"
       inkscape:connector-curvature="0" />
    <path
       style="fill:#1a1a1a;fill-opacity:0.23855525;stroke-width:2.13813281"
       d="m 80.192936,625.30686 c 0,-7.4162 46.043534,-114.75714 73.100714,-170.41912 11.00403,-22.63748 19.61118,-41.15906 19.127,-41.15906 -0.48418,0 -19.44941,11.07211 -42.14496,24.60468 -22.69555,13.53257 -43.00817,25.15565 -45.13916,25.82906 -6.636236,2.09712 7.944923,-9.4264 23.77759,-18.79148 23.42879,-13.85821 78.57546,-48.65453 86.06079,-54.30244 7.23107,-5.45607 17.81391,-6.92571 17.735,-2.46288 -0.026,1.46997 -5.82394,12.29427 -12.88433,24.054 -7.06039,11.75973 -17.75826,31.00292 -23.77304,42.76265 -9.4029,18.38397 -12.68715,22.71023 -23.42779,30.86088 -6.87051,5.21376 -12.18303,9.78836 -11.80561,10.16578 0.37742,0.37741 3.77783,-0.39153 7.55647,-1.70877 3.77864,-1.31724 7.20585,-2.0432 7.61603,-1.61324 0.41017,0.42996 -4.60777,13.28982 -11.15096,28.57747 -6.5432,15.28765 -16.90828,42.17975 -23.0335,59.76023 l -11.13677,31.96451 -15.238738,6.92992 c -8.381305,3.81144 -15.238736,6.03796 -15.238736,4.94781 z"
       id="path3918"
       inkscape:connector-curvature="0"
       transform="scale(0.26458333)" />
  </g>
</svg>
