<?xml version="1.0" encoding="UTF-8" standalone="no"?>
<!-- Created with Inkscape (http://www.inkscape.org/) -->

<svg
   xmlns:dc="http://purl.org/dc/elements/1.1/"
   xmlns:cc="http://creativecommons.org/ns#"
   xmlns:rdf="http://www.w3.org/1999/02/22-rdf-syntax-ns#"
   xmlns:svg="http://www.w3.org/2000/svg"
   xmlns="http://www.w3.org/2000/svg"
   xmlns:sodipodi="http://sodipodi.sourceforge.net/DTD/sodipodi-0.dtd"
   xmlns:inkscape="http://www.inkscape.org/namespaces/inkscape"
   sodipodi:docname="logo4.svg"
   inkscape:version="0.92.0 r15299"
   id="svg6246"
   version="1.1"
   viewBox="0 0 305.65887 464.69386"
   height="464.69385mm"
   width="363.87961mm">
  <defs
     id="defs6240">
    <inkscape:perspective
       sodipodi:type="inkscape:persp3d"
       inkscape:vp_x="965.90202 : 2395.4738 : 1"
       inkscape:vp_y="0 : 6284.8622 : 0"
       inkscape:vp_z="2721.3733 : 2316.7934 : 1"
       inkscape:persp3d-origin="1901.6949 : 2005.6925 : 1"
       id="perspective4565" />
    <inkscape:perspective
       sodipodi:type="inkscape:persp3d"
       inkscape:vp_x="225.80801 : 637.29123 : 1"
       inkscape:vp_y="0 : 1662.8698 : 0"
       inkscape:vp_z="615.96152 : 616.47372 : 1"
       inkscape:persp3d-origin="433.78798 : 534.16161 : 1"
       id="perspective82" />
    <inkscape:perspective
       sodipodi:type="inkscape:persp3d"
       inkscape:vp_x="108.71591 : 493.6459 : 1"
       inkscape:vp_y="0 : 1360.3932 : 0"
       inkscape:vp_z="498.86942 : 476.6151 : 1"
       inkscape:persp3d-origin="316.69588 : 409.27559 : 1"
       id="perspective66" />
    <inkscape:perspective
       sodipodi:type="inkscape:persp3d"
       inkscape:vp_x="-67.163144 : 415.62574 : 1"
       inkscape:vp_y="0 : 3203.0055 : 0"
       inkscape:vp_z="632.69665 : 375.52719 : 1"
       inkscape:persp3d-origin="305.9126 : 216.97833 : 1"
       id="perspective6914" />
  </defs>
  <sodipodi:namedview
     inkscape:snap-grids="false"
     inkscape:snap-nodes="false"
     inkscape:snap-midpoints="false"
     inkscape:snap-text-baseline="false"
     showguides="true"
     inkscape:window-maximized="1"
     inkscape:window-y="-8"
     inkscape:window-x="-8"
     inkscape:window-height="716"
     inkscape:window-width="1366"
     showgrid="false"
     inkscape:current-layer="layer1"
     inkscape:document-units="mm"
     inkscape:cy="1320.8628"
     inkscape:cx="547.75965"
     inkscape:zoom="0.42137346"
     inkscape:pageshadow="2"
     inkscape:pageopacity="0.0"
     borderopacity="1.0"
     bordercolor="#666666"
     pagecolor="#ffffff"
     id="base"
     inkscape:snap-page="true"
     inkscape:measure-start="-374.964,655.001"
     inkscape:measure-end="949.277,749.929" />
  <metadata
     id="metadata6243">
    <rdf:RDF>
      <cc:Work
         rdf:about="">
        <dc:format>image/svg+xml</dc:format>
        <dc:type
           rdf:resource="http://purl.org/dc/dcmitype/StillImage" />
        <dc:title></dc:title>
      </cc:Work>
    </rdf:RDF>
  </metadata>
  <g
     inkscape:label="Capa 1"
     inkscape:groupmode="layer"
     id="layer1"
     transform="translate(-5.0920743,397.56803)">
    <flowRoot
       xml:space="preserve"
       id="flowRoot6874"
       style="font-style:normal;font-variant:normal;font-weight:normal;font-stretch:normal;font-size:40px;line-height:25px;font-family:'8514fix';-inkscape-font-specification:'8514fix';letter-spacing:0px;word-spacing:0px;fill:#000000;fill-opacity:1;stroke:none"><flowRegion
         id="flowRegion6876"><rect
           id="rect6878"
           width="239.83437"
           height="78.178055"
           x="111.30434"
           y="212.20912" /></flowRegion><flowPara
         id="flowPara6880" /></flowRoot>    <text
       xml:space="preserve"
       style="font-style:normal;font-variant:normal;font-weight:normal;font-stretch:normal;font-size:40.77442169px;line-height:63.99337387px;font-family:'8514fix';-inkscape-font-specification:'8514fix';letter-spacing:0px;word-spacing:0px;fill:#000000;fill-opacity:1;stroke:none;stroke-width:1.01936042"
       x="-21.723782"
       y="-337.76251"
       id="text6884"
       transform="scale(0.9611014,1.0404729)"><tspan
         sodipodi:role="line"
         id="tspan6882"
         x="-21.723782"
         y="-337.76251"
         style="font-size:54.36589813px;line-height:192.27180481px;stroke-width:1.01936042">M. RIVEROS</tspan></text>
    <text
       xml:space="preserve"
       style="font-style:normal;font-variant:normal;font-weight:normal;font-stretch:normal;font-size:10.58333302px;line-height:6.61458302px;font-family:'8514fix';-inkscape-font-specification:'8514fix';letter-spacing:0px;word-spacing:0px;fill:#000000;fill-opacity:1;stroke:none;stroke-width:0.26458332"
       x="19.33637"
       y="129.41814"
       id="text6908"><tspan
         sodipodi:role="line"
         id="tspan6906"
         x="19.33637"
         y="135.76634"
         style="stroke-width:0.26458332" /></text>
    <text
       xml:space="preserve"
       style="font-style:normal;font-variant:normal;font-weight:normal;font-stretch:normal;font-size:10.58333302px;line-height:6.61458302px;font-family:'8514fix';-inkscape-font-specification:'8514fix';letter-spacing:0px;word-spacing:0px;fill:#000000;fill-opacity:1;stroke:none;stroke-width:0.26458332"
       x="19.33637"
       y="135.02898"
       id="text6912"><tspan
         sodipodi:role="line"
         id="tspan6910"
         x="19.33637"
         y="141.37718"
         style="stroke-width:0.26458332" /></text>
    <g
       sodipodi:type="inkscape:box3d"
       id="g6916"
       style="fill:#28170b"
       inkscape:perspectiveID="#perspective6914"
       inkscape:corner0="4.1417233 : 0.03668324 : 0 : 1"
       inkscape:corner7="0.36354264 : 0.060286816 : 0.25 : 1">
      <path
         sodipodi:type="inkscape:box3dside"
         id="path6918"
         style="fill:#353564;fill-rule:evenodd;stroke:none;stroke-width:3.44488716;stroke-linejoin:round"
         inkscape:box3dsidetype="6"
         d="m -17.595245,-332.71711 v -14.70371 l 34.626556,1.80923 v 14.02194 z"
         points="-17.595245,-347.42082 17.031311,-345.61159 17.031311,-331.58965 -17.595245,-332.71711 " />
      <path
         sodipodi:type="inkscape:box3dside"
         id="path6928"
         style="fill:#e9e9ff;fill-rule:evenodd;stroke:none;stroke-width:3.44488716;stroke-linejoin:round"
         inkscape:box3dsidetype="11"
         d="m 17.031311,-331.58965 283.340199,39.5961 v -46.8549 l -283.340199,-6.76314 z"
         points="300.37151,-291.99355 300.37151,-338.84845 17.031311,-345.61159 17.031311,-331.58965 " />
      <path
         sodipodi:type="inkscape:box3dside"
         id="path6926"
         style="fill:#afafde;fill-rule:evenodd;stroke:none;stroke-width:3.44488716;stroke-linejoin:round"
         inkscape:box3dsidetype="13"
         d="m -17.595245,-347.42082 239.344255,2.99002 78.6225,5.58235 -283.340199,-6.76314 z"
         points="221.74901,-344.4308 300.37151,-338.84845 17.031311,-345.61159 -17.595245,-347.42082 " />
      <path
         sodipodi:type="inkscape:box3dside"
         id="path6920"
         style="fill:#4d4d9f;fill-rule:evenodd;stroke:none;stroke-width:3.44488716;stroke-linejoin:round"
         inkscape:box3dsidetype="5"
         d="m -17.595245,-332.71711 239.344255,43.73187 78.6225,-3.00831 -283.340199,-39.5961 z"
         points="221.74901,-288.98524 300.37151,-291.99355 17.031311,-331.58965 -17.595245,-332.71711 " />
      <path
         sodipodi:type="inkscape:box3dside"
         id="path6924"
         style="fill:#d7d7ff;fill-rule:evenodd;stroke:none;stroke-width:3.44488716;stroke-linejoin:round"
         inkscape:box3dsidetype="14"
         d="m 221.74901,-288.98524 v -55.44556 l 78.6225,5.58235 v 46.8549 z"
         points="221.74901,-344.4308 300.37151,-338.84845 300.37151,-291.99355 221.74901,-288.98524 " />
      <path
         sodipodi:type="inkscape:box3dside"
         id="path6922"
         style="fill:#8686bf;fill-rule:evenodd;stroke:none;stroke-width:3.44488716;stroke-linejoin:round"
         inkscape:box3dsidetype="3"
         d="m -17.595245,-332.71711 239.344255,43.73187 v -55.44556 l -239.344255,-2.99002 z"
         points="221.74901,-288.98524 221.74901,-344.4308 -17.595245,-347.42082 -17.595245,-332.71711 " />
    </g>
    <path
       style="fill:#668000;stroke-width:0.97564995"
       id="path7036"
       d="m -17.027591,-288.26955 c 0.321692,-0.30083 0.652707,-0.5881 0.965042,-0.90092 3.040125,-3.03993 -0.712924,0.54476 2.968889,-3.09448 3.1139839,-3.07766 6.4010547,-5.93112 9.660673,-8.81118 6.4078365,-5.85047 12.9070935,-11.601 19.820014,-16.70461 6.567063,-4.84835 17.345687,-11.57246 22.462017,-14.90601 6.915272,-3.78014 14.166564,-6.87071 21.642196,-9.01812 4.091895,-1.17526 6.504046,-1.54511 10.659807,-2.34738 6.866147,-1.252 13.839752,-1.59627 20.791256,-0.92795 4.332143,0.41728 5.90891,0.8473 10.191217,1.70591 6.78417,1.54631 13.42819,3.99252 19.64477,7.45065 3.38941,1.8854 6.57192,4.05668 9.83652,6.19475 7.76977,5.29185 15.50284,10.70804 23.80152,14.91517 6.94882,3.52306 7.96129,3.68531 15.2935,6.49356 7.6323,1.9867 10.17266,2.97176 18.11141,3.6813 11.07587,0.99033 22.44574,0.0595 33.27084,-2.50927 4.41064,-1.04582 8.72187,-2.54208 13.08278,-3.81303 16.6219,-5.98798 32.20067,-14.80437 47.31165,-24.41883 5.97855,-3.80394 11.81458,-7.87719 17.72191,-11.81575 0,0 0.43281,-0.19208 0.43281,-0.19208 v 0 c -6.17093,4.11286 -12.26913,8.36306 -18.51282,12.33849 -5.59088,3.55978 -11.23085,7.03372 -16.98326,10.26206 -12.96314,7.27484 -17.86149,9.04798 -31.18211,14.89819 -4.98939,1.80856 -9.90824,3.87166 -14.96811,5.42596 -4.44745,1.36606 -8.9751,2.42344 -13.52068,3.32529 -7.94381,1.57598 -15.59173,2.41469 -23.66555,2.21269 -8.32466,-0.20224 -11.54699,-1.16634 -19.62008,-2.72956 -8.17212,-2.46244 -8.83563,-2.43355 -16.62616,-5.65152 -5.46579,-2.25771 -8.82197,-3.94076 -14.02642,-6.74553 -2.05717,-1.10863 -4.07493,-2.30786 -6.12332,-3.43688 -1.95295,-1.07645 -3.92024,-2.11973 -5.88037,-3.1795 -3.35128,-1.805 -7.08111,-3.86342 -10.50513,-5.51961 -6.3052,-3.05004 -12.828512,-5.49166 -19.562426,-6.99761 -4.424791,-0.7742 -5.70811,-1.10165 -10.161155,-1.47372 -6.788045,-0.5677 -13.57937,-0.17335 -20.287424,0.98778 -1.724294,0.334 -3.458636,0.61359 -5.172938,1.0047 -9.039199,2.06165 -17.833322,5.45231 -26.040077,10.1033 2.293938,-1.60062 4.632146,-3.1255 6.881833,-4.80184 1.706345,-1.27146 -3.528497,2.34203 -5.250882,3.58647 -6.320331,4.56667 -12.349008,9.69266 -17.765378,15.53089 -0.848406,1.00265 -1.683431,2.01959 -2.5452022,3.00805 -1.9107197,2.19135 -4.1610525,4.22598 -5.4520609,6.97694 0,0 -20.6989649,9.89323 -20.6989649,9.89323 z"
       inkscape:connector-curvature="0" />
    <rect
       style="fill:none;fill-opacity:1;stroke-width:0.26458332"
       id="rect4533"
       width="149.44186"
       height="60.906979"
       x="-18.367128"
       y="-351.06021" />
    <flowRoot
       xml:space="preserve"
       id="flowRoot4593"
       style="fill:black;fill-opacity:1;stroke:none;font-family:sans-serif;font-style:normal;font-weight:normal;font-size:40px;line-height:25px;letter-spacing:0px;word-spacing:0px"><flowRegion
         id="flowRegion4595"><rect
           id="rect4597"
           width="223.08002"
           height="59.329792"
           x="854.349"
           y="246.97331" /></flowRegion><flowPara
         id="flowPara4599"></flowPara></flowRoot>    <text
       xml:space="preserve"
       style="font-style:normal;font-variant:normal;font-weight:normal;font-stretch:normal;font-size:18.70804977px;line-height:9.74371338px;font-family:Arial;-inkscape-font-specification:'Arial, Normal';font-variant-ligatures:normal;font-variant-caps:normal;font-variant-numeric:normal;font-feature-settings:normal;text-align:start;letter-spacing:0px;word-spacing:0px;writing-mode:tb-rl;text-anchor:start;fill:#000000;fill-opacity:1;stroke:none;stroke-width:0.38974857"
       x="279.1767"
       y="-435.66354"
       id="text4603"
       transform="scale(1.1206804,0.89231509)"><tspan
         sodipodi:role="line"
         id="tspan4601"
         x="-435.66354"
         y="279.1767"
         style="font-style:normal;font-variant:normal;font-weight:normal;font-stretch:normal;font-size:18.70804977px;font-family:Arial;-inkscape-font-specification:'Arial, Normal';font-variant-ligatures:normal;font-variant-caps:normal;font-variant-numeric:normal;font-feature-settings:normal;text-align:start;writing-mode:tb-rl;text-anchor:start;stroke-width:0.38974857">COMANDOS</tspan></text>
  </g>
</svg>
